PathFileType	4	(X/Y/Z)	C:\Github\FootballMatch-and-Movement-Analysis\output\test Exam_2026-03-06_135002_tvc2_Sports2D\test Exam_2026-03-06_135002_tvc2_Sports2D_px_person00.trc
DataRate	CameraRate	NumFrames	NumMarkers	Units	OrigDataRate	OrigDataStartFrame	OrigNumFrames
30.0	30.0	6	22	m	30.0	193	516
Frame#	Time	Hip			RHip			RKnee			RAnkle			RBigToe			RSmallToe			RHeel			LHip			LKnee			LAnkle			LBigToe			LSmallToe			LHeel			Neck			Head			Nose			RShoulder			RElbow			RWrist			LShoulder			LElbow			LWrist			
		X1	Y1	Z1	X2	Y2	Z2	X3	Y3	Z3	X4	Y4	Z4	X5	Y5	Z5	X6	Y6	Z6	X7	Y7	Z7	X8	Y8	Z8	X9	Y9	Z9	X10	Y10	Z10	X11	Y11	Z11	X12	Y12	Z12	X13	Y13	Z13	X14	Y14	Z14	X15	Y15	Z15	X16	Y16	Z16	X17	Y17	Z17	X18	Y18	Z18	X19	Y19	Z19	X20	Y20	Z20	X21	Y21	Z21	X22	Y22	Z22
193	6.445825242718446	307.0081707399225	680.8063290791961	0.0	269.08016245156904	701.478043318722	0.0	287.9765790512016	858.1940236510427	0.0	304.58535237844404	1003.8255058194645	0.0	296.13477275821094	1072.6472804690761	0.0	277.6844385621157	1066.0151597342212	0.0	317.2253160684979	1028.3040604500284	0.0	348.99218317647075	681.7799475557579	0.0	362.39643749188065	821.5318107176956	0.0	385.0492939690325	1017.2007166858427	0.0	386.593496495704	1088.5240740563886	0.0	412.5559171836404	1085.205495105945	0.0	381.094015080335	1044.582819298576	0.0	264.7462369786254	430.6855838731354	0.0	246.11069451204395	326.3800418588102	0.0	254.56794833033143	381.7092490397891	0.0	202.9463331917663	487.95179763311023	0.0	146.12912208817312	579.4408579946831	0.0	208.01937834233638	640.596936673616	0.0	347.25559633566775	458.5989506003428	0.0	437.4357738556376	528.9230378183377	0.0	393.0970513151121	613.0719239945222	0.0
194	6.479223300970874	306.54566383028305	681.2877567733337	0.0	268.6090489446314	702.1236433651798	0.0	287.1205981943258	859.5998367393499	0.0	304.198357808336	1003.8674793021434	0.0	294.77100560296844	1071.9373783103026	0.0	276.6174496989698	1064.8767404956432	0.0	317.63379054475644	1026.6069099465	0.0	348.49882589096507	682.1450420686823	0.0	361.68295291299637	823.5447140177148	0.0	383.3289219795112	1017.3580492258875	0.0	384.7291885313765	1086.862310856436	0.0	408.5254861412345	1085.1258285354502	0.0	378.7856063294718	1044.0328037569477	0.0	265.5509989886961	430.3953463119274	0.0	247.13887305107986	326.28281990788145	0.0	256.14896291791155	381.90788520698635	0.0	203.2451815183539	488.5232055463723	0.0	146.810883442226	579.6135536107569	0.0	206.36579208155598	640.066453561046	0.0	347.65213147817195	458.7771865888647	0.0	437.7325707361322	529.5546374624096	0.0	393.4247102017814	613.6832467970639	0.0
195	6.512621359223301	306.75043871503175	681.0048302746409	0.0	268.59259209999624	702.7627546617379	0.0	286.39750594014424	860.1625423299549	0.0	304.0968287019236	1004.8075915169817	0.0	292.39216504390595	1070.8671361460797	0.0	274.4480696879563	1063.817610883422	0.0	318.0216168037241	1024.9292401637663	0.0	348.2046851781804	682.4336442881661	0.0	361.4877525716014	827.4107484403505	0.0	380.92342767609995	1016.1883635871405	0.0	381.88875831722163	1081.8213030247503	0.0	402.41354599120456	1082.9544663329618	0.0	376.89409116477253	1042.8992072241567	0.0	266.3880465969292	430.4494037610476	0.0	247.35346989979254	326.21416720138996	0.0	257.14864643804907	381.9007288575111	0.0	203.1065469291283	488.9411154130979	0.0	147.31085561295342	579.6583495074048	0.0	204.38846430352203	639.5555346941374	0.0	347.7589984960343	458.95963273903783	0.0	438.1088448461696	529.7715682878413	0.0	394.06215052147274	613.8445298167702	0.0
196	6.546019417475728	306.9132275813243	680.693502944078	0.0	268.46099819852395	703.1055954516016	0.0	285.26036916155977	860.3146384482942	0.0	304.620887873524	1006.0573778780275	0.0	290.0801281694511	1069.9601079053423	0.0	272.55132035950226	1063.0694613542673	0.0	318.2396448049645	1024.7618175033367	0.0	348.19083195081697	683.2837301261602	0.0	361.2825687456759	830.988936446742	0.0	378.84527132342953	1015.3521384258206	0.0	379.53151191165097	1077.4601763735297	0.0	397.9334023966273	1080.3981797258102	0.0	375.69921493635167	1042.4950327960655	0.0	266.8982834481911	431.1134077693646	0.0	247.46620945873173	326.58999706342524	0.0	257.6078823148068	382.0390481228566	0.0	202.95250122023936	488.9216975507851	0.0	147.57869710708457	579.7559144758109	0.0	203.69276406971898	639.3898304358954	0.0	347.7752801182695	459.5957369529434	0.0	438.2710481263209	529.797723160526	0.0	394.56072168623456	613.9669146839593	0.0
197	6.579417475728155	306.3014824729252	681.0656672794848	0.0	267.8843711181808	703.1283433005333	0.0	284.007666465486	860.4187394327112	0.0	305.558664225746	1006.4956439299019	0.0	289.2614607776724	1069.179505748147	0.0	272.19216273630855	1062.34993425614	0.0	318.671656267968	1025.6678718485784	0.0	348.4066584379075	684.8441696824931	0.0	360.58273063837424	832.8744025686783	0.0	377.5299600926028	1015.3817734716571	0.0	378.07934916358755	1076.7143389604175	0.0	396.8450072514418	1078.746391597489	0.0	374.65239819900415	1042.6538378624307	0.0	266.92214534301706	432.502888678026	0.0	248.17859008874174	327.3888341237199	0.0	257.8781302577119	382.5945723131033	0.0	203.21394161116666	488.5312448517761	0.0	147.95280497154158	579.8697992015398	0.0	204.7302802619834	639.6456273678642	0.0	347.86460747947086	460.3720372314432	0.0	438.15594260058117	529.6955622820705	0.0	394.7138830797013	614.1278727434902	0.0
198	6.612815533980583	305.34279329416665	682.0531017610892	0.0	267.21739729883046	702.9200390096198	0.0	283.3113019528917	860.8535617090396	0.0	305.94930204711204	1006.0014118054065	0.0	289.1781430967559	1068.9579277030975	0.0	272.66681778988027	1061.8243592730892	0.0	319.21166909805424	1026.6806144633726	0.0	348.7887493006642	686.4260649775497	0.0	359.7734496630567	834.2845739437129	0.0	376.69353370243323	1015.6223861642347	0.0	376.52699402324214	1078.709175786085	0.0	397.39873692622496	1078.7470421445325	0.0	373.45021470835064	1042.9424648055206	0.0	266.6566490202412	433.90514136307263	0.0	249.17594344253462	328.20528835610025	0.0	258.10997812763407	383.1319407102344	0.0	203.75992877012905	488.45624750589377	0.0	148.6730549876347	579.8190600653876	0.0	206.9509826813835	640.1879708054164	0.0	348.0364232109427	460.87423844528684	0.0	437.9934724204172	529.6618829533777	0.0	394.5610486196416	614.5087888917719	0.0
